<svg xmlns="http://www.w3.org/2000/svg" viewBox="0 0 400 400">
  <defs>
    <linearGradient id="bg3" x1="0%" y1="0%" x2="100%" y2="100%">
      <stop offset="0%" style="stop-color:#1c1008"/>
      <stop offset="100%" style="stop-color:#0f1729"/>
    </linearGradient>
    <linearGradient id="glow3" x1="0%" y1="0%" x2="100%" y2="100%">
      <stop offset="0%" style="stop-color:#f59e0b"/>
      <stop offset="100%" style="stop-color:#ef4444"/>
    </linearGradient>
    <filter id="shadow3">
      <feDropShadow dx="0" dy="4" stdDeviation="8" flood-color="#f59e0b" flood-opacity="0.35"/>
    </filter>
  </defs>
  <rect width="400" height="400" fill="url(#bg3)"/>
  <g opacity="0.04" stroke="#f59e0b" stroke-width="0.5">
    <line x1="0" y1="50" x2="400" y2="50"/><line x1="0" y1="100" x2="400" y2="100"/>
    <line x1="0" y1="150" x2="400" y2="150"/><line x1="0" y1="200" x2="400" y2="200"/>
    <line x1="0" y1="250" x2="400" y2="250"/><line x1="0" y1="300" x2="400" y2="300"/>
    <line x1="0" y1="350" x2="400" y2="350"/>
    <line x1="50" y1="0" x2="50" y2="400"/><line x1="100" y1="0" x2="100" y2="400"/>
    <line x1="150" y1="0" x2="150" y2="400"/><line x1="200" y1="0" x2="200" y2="400"/>
    <line x1="250" y1="0" x2="250" y2="400"/><line x1="300" y1="0" x2="300" y2="400"/>
    <line x1="350" y1="0" x2="350" y2="400"/>
  </g>
  <circle cx="200" cy="190" r="130" fill="#f59e0b" opacity="0.05"/>
  <circle cx="200" cy="190" r="80" fill="#ef4444" opacity="0.06"/>
  <!-- Shiba body -->
  <ellipse cx="200" cy="235" rx="88" ry="78" fill="#f59e0b" filter="url(#shadow3)"/>
  <ellipse cx="200" cy="245" rx="68" ry="52" fill="#fbbf24"/>
  <!-- Face lighter area -->
  <ellipse cx="200" cy="230" rx="50" ry="45" fill="#fde68a"/>
  <!-- Ears -->
  <polygon points="125,180 140,100 170,170" fill="#f59e0b"/>
  <polygon points="133,175 143,115 163,168" fill="#fbbf24"/>
  <polygon points="275,180 260,100 230,170" fill="#f59e0b"/>
  <polygon points="267,175 257,115 237,168" fill="#fbbf24"/>
  <!-- Eyes - menacing godfather look -->
  <ellipse cx="170" cy="210" rx="18" ry="12" fill="#fff"/>
  <ellipse cx="230" cy="210" rx="18" ry="12" fill="#fff"/>
  <circle cx="173" cy="211" r="8" fill="#1a1a2e"/>
  <circle cx="233" cy="211" r="8" fill="#1a1a2e"/>
  <circle cx="176" cy="208" r="3" fill="#fff"/>
  <circle cx="236" cy="208" r="3" fill="#fff"/>
  <!-- Eyebrows - stern -->
  <line x1="152" y1="195" x2="185" y2="198" stroke="#92400e" stroke-width="3" stroke-linecap="round"/>
  <line x1="248" y1="195" x2="215" y2="198" stroke="#92400e" stroke-width="3" stroke-linecap="round"/>
  <!-- Nose -->
  <ellipse cx="200" cy="232" rx="10" ry="7" fill="#92400e"/>
  <!-- Mouth - smirk -->
  <path d="M180 248 Q200 258 225 245" fill="none" stroke="#92400e" stroke-width="2.5" stroke-linecap="round"/>
  <!-- Fedora hat -->
  <ellipse cx="200" cy="155" rx="80" ry="15" fill="#374151"/>
  <path d="M140 155 Q145 100 200 90 Q255 100 260 155" fill="#4b5563"/>
  <rect x="155" y="130" width="90" height="8" rx="2" fill="#f59e0b"/>
  <!-- Hammer -->
  <rect x="290" y="100" width="12" height="80" rx="3" fill="#92400e" transform="rotate(25,296,140)"/>
  <rect x="275" y="85" width="45" height="28" rx="4" fill="#6b7280" transform="rotate(25,297,99)"/>
  <!-- Impact lines -->
  <line x1="310" y1="75" x2="330" y2="55" stroke="#f59e0b" stroke-width="2" opacity="0.7"/>
  <line x1="320" y1="85" x2="345" y2="75" stroke="#f59e0b" stroke-width="2" opacity="0.5"/>
  <line x1="315" y1="65" x2="325" y2="45" stroke="#fbbf24" stroke-width="1.5" opacity="0.6"/>
  <!-- Sparkles -->
  <text x="60" y="100" font-size="22" opacity="0.7">🔨</text>
  <text x="70" y="300" font-size="18" opacity="0.5">💰</text>
  <text x="310" y="310" font-size="20" opacity="0.6">🎬</text>
  <!-- Bottom label -->
  <rect x="95" y="330" width="210" height="40" rx="20" fill="url(#glow3)" opacity="0.9"/>
  <text x="200" y="356" text-anchor="middle" font-family="monospace" font-size="15" font-weight="bold" fill="#fff">BONKFATHER</text>
</svg>
