<svg xmlns="http://www.w3.org/2000/svg" viewBox="0 0 400 400">
  <defs>
    <linearGradient id="bg4" x1="0%" y1="0%" x2="100%" y2="100%">
      <stop offset="0%" style="stop-color:#0a1628"/>
      <stop offset="100%" style="stop-color:#0f172a"/>
    </linearGradient>
    <linearGradient id="glow4" x1="0%" y1="0%" x2="100%" y2="100%">
      <stop offset="0%" style="stop-color:#00d4ff"/>
      <stop offset="100%" style="stop-color:#0ea5e9"/>
    </linearGradient>
    <filter id="shadow4">
      <feDropShadow dx="0" dy="4" stdDeviation="10" flood-color="#00d4ff" flood-opacity="0.3"/>
    </filter>
  </defs>
  <rect width="400" height="400" fill="url(#bg4)"/>
  <g opacity="0.04" stroke="#00d4ff" stroke-width="0.5">
    <line x1="0" y1="50" x2="400" y2="50"/><line x1="0" y1="100" x2="400" y2="100"/>
    <line x1="0" y1="150" x2="400" y2="150"/><line x1="0" y1="200" x2="400" y2="200"/>
    <line x1="0" y1="250" x2="400" y2="250"/><line x1="0" y1="300" x2="400" y2="300"/>
    <line x1="0" y1="350" x2="400" y2="350"/>
    <line x1="50" y1="0" x2="50" y2="400"/><line x1="100" y1="0" x2="100" y2="400"/>
    <line x1="150" y1="0" x2="150" y2="400"/><line x1="200" y1="0" x2="200" y2="400"/>
    <line x1="250" y1="0" x2="250" y2="400"/><line x1="300" y1="0" x2="300" y2="400"/>
    <line x1="350" y1="0" x2="350" y2="400"/>
  </g>
  <circle cx="200" cy="180" r="140" fill="#00d4ff" opacity="0.04"/>
  <circle cx="200" cy="180" r="90" fill="#0ea5e9" opacity="0.06"/>
  <!-- Head -->
  <rect x="145" y="100" width="110" height="140" rx="20" fill="#d4a574" filter="url(#shadow4)"/>
  <!-- Jaw - strong square jaw -->
  <rect x="140" y="190" width="120" height="50" rx="12" fill="#c4956a"/>
  <!-- Hair -->
  <rect x="140" y="90" width="120" height="40" rx="10" fill="#1e293b"/>
  <rect x="145" y="85" width="110" height="25" rx="8" fill="#334155"/>
  <!-- Eyebrows - thick and determined -->
  <rect x="158" y="140" width="32" height="6" rx="3" fill="#1e293b"/>
  <rect x="210" y="140" width="32" height="6" rx="3" fill="#1e293b"/>
  <!-- Eyes - intense -->
  <ellipse cx="175" cy="160" rx="14" ry="10" fill="#fff"/>
  <ellipse cx="225" cy="160" rx="14" ry="10" fill="#fff"/>
  <circle cx="177" cy="160" r="7" fill="#0ea5e9"/>
  <circle cx="227" cy="160" r="7" fill="#0ea5e9"/>
  <circle cx="177" cy="160" r="3.5" fill="#0a1628"/>
  <circle cx="227" cy="160" r="3.5" fill="#0a1628"/>
  <circle cx="179" cy="157" r="2" fill="#fff"/>
  <circle cx="229" cy="157" r="2" fill="#fff"/>
  <!-- Nose -->
  <path d="M195 170 L192 190 L200 195 L208 190 L205 170" fill="#b8845a"/>
  <!-- Mouth - confident smirk -->
  <path d="M178 210 Q200 222 222 208" fill="none" stroke="#8b6040" stroke-width="2.5" stroke-linecap="round"/>
  <!-- Beard stubble dots -->
  <g fill="#a0845c" opacity="0.3">
    <circle cx="170" cy="220" r="1"/><circle cx="180" cy="225" r="1"/>
    <circle cx="190" cy="228" r="1"/><circle cx="200" cy="230" r="1"/>
    <circle cx="210" cy="228" r="1"/><circle cx="220" cy="225" r="1"/>
    <circle cx="230" cy="220" r="1"/>
  </g>
  <!-- Neck / shoulders -->
  <rect x="175" y="240" width="50" height="30" rx="5" fill="#d4a574"/>
  <!-- Shoulders - massive -->
  <path d="M100 310 Q110 260 175 265 L225 265 Q290 260 300 310" fill="#1e293b"/>
  <rect x="100" y="300" width="200" height="30" rx="5" fill="#1e293b"/>
  <!-- Chest line -->
  <line x1="200" y1="270" x2="200" y2="320" stroke="#334155" stroke-width="1.5"/>
  <!-- Sunglasses -->
  <rect x="152" y="148" width="40" height="22" rx="4" fill="#0a1628" opacity="0.85"/>
  <rect x="208" y="148" width="40" height="22" rx="4" fill="#0a1628" opacity="0.85"/>
  <line x1="192" y1="158" x2="208" y2="158" stroke="#0a1628" stroke-width="2"/>
  <!-- Lens glare -->
  <line x1="158" y1="152" x2="168" y2="155" stroke="#00d4ff" stroke-width="1.5" opacity="0.5"/>
  <line x1="214" y1="152" x2="224" y2="155" stroke="#00d4ff" stroke-width="1.5" opacity="0.5"/>
  <!-- Sparkles -->
  <text x="60" y="120" font-size="24" opacity="0.8">💪</text>
  <text x="310" y="140" font-size="22" opacity="0.7">😎</text>
  <text x="70" y="280" font-size="16" opacity="0.4">🏆</text>
  <text x="310" y="280" font-size="18" opacity="0.5">⚡</text>
  <!-- Bottom label -->
  <rect x="115" y="345" width="170" height="40" rx="20" fill="url(#glow4)" opacity="0.9"/>
  <text x="200" y="371" text-anchor="middle" font-family="monospace" font-size="16" font-weight="bold" fill="#0a1628">GIGACHAD</text>
</svg>
