<svg xmlns="http://www.w3.org/2000/svg" viewBox="0 0 400 400">
  <defs>
    <linearGradient id="bg2" x1="0%" y1="0%" x2="100%" y2="100%">
      <stop offset="0%" style="stop-color:#1a0a2e"/>
      <stop offset="100%" style="stop-color:#0a1628"/>
    </linearGradient>
    <linearGradient id="glow2" x1="0%" y1="0%" x2="100%" y2="100%">
      <stop offset="0%" style="stop-color:#a855f7"/>
      <stop offset="100%" style="stop-color:#6366f1"/>
    </linearGradient>
    <filter id="shadow2">
      <feDropShadow dx="0" dy="4" stdDeviation="8" flood-color="#a855f7" flood-opacity="0.3"/>
    </filter>
  </defs>
  <rect width="400" height="400" fill="url(#bg2)"/>
  <g opacity="0.04" stroke="#a855f7" stroke-width="0.5">
    <line x1="0" y1="50" x2="400" y2="50"/><line x1="0" y1="100" x2="400" y2="100"/>
    <line x1="0" y1="150" x2="400" y2="150"/><line x1="0" y1="200" x2="400" y2="200"/>
    <line x1="0" y1="250" x2="400" y2="250"/><line x1="0" y1="300" x2="400" y2="300"/>
    <line x1="0" y1="350" x2="400" y2="350"/>
    <line x1="50" y1="0" x2="50" y2="400"/><line x1="100" y1="0" x2="100" y2="400"/>
    <line x1="150" y1="0" x2="150" y2="400"/><line x1="200" y1="0" x2="200" y2="400"/>
    <line x1="250" y1="0" x2="250" y2="400"/><line x1="300" y1="0" x2="300" y2="400"/>
    <line x1="350" y1="0" x2="350" y2="400"/>
  </g>
  <circle cx="200" cy="190" r="130" fill="#a855f7" opacity="0.06"/>
  <circle cx="200" cy="190" r="85" fill="#6366f1" opacity="0.08"/>
  <!-- Cat body -->
  <ellipse cx="200" cy="240" rx="85" ry="75" fill="#f97316" filter="url(#shadow2)"/>
  <ellipse cx="200" cy="250" rx="65" ry="50" fill="#fb923c"/>
  <!-- Ears -->
  <polygon points="135,175 150,110 175,170" fill="#f97316"/>
  <polygon points="143,170 153,120 170,168" fill="#fdba74"/>
  <polygon points="265,175 250,110 225,170" fill="#f97316"/>
  <polygon points="257,170 247,120 230,168" fill="#fdba74"/>
  <!-- Eyes -->
  <ellipse cx="170" cy="210" rx="22" ry="24" fill="#fff"/>
  <ellipse cx="230" cy="210" rx="22" ry="24" fill="#fff"/>
  <ellipse cx="173" cy="212" rx="12" ry="16" fill="#1a1a2e"/>
  <ellipse cx="233" cy="212" rx="12" ry="16" fill="#1a1a2e"/>
  <circle cx="177" cy="206" r="5" fill="#fff"/>
  <circle cx="237" cy="206" r="5" fill="#fff"/>
  <!-- Nose -->
  <ellipse cx="200" cy="235" rx="8" ry="6" fill="#c2410c"/>
  <!-- Mouth -->
  <path d="M188 242 Q200 255 212 242" fill="none" stroke="#c2410c" stroke-width="2.5"/>
  <!-- Whiskers -->
  <line x1="120" y1="225" x2="165" y2="232" stroke="#fdba74" stroke-width="1.5"/>
  <line x1="118" y1="238" x2="163" y2="240" stroke="#fdba74" stroke-width="1.5"/>
  <line x1="235" y1="232" x2="280" y2="225" stroke="#fdba74" stroke-width="1.5"/>
  <line x1="237" y1="240" x2="282" y2="238" stroke="#fdba74" stroke-width="1.5"/>
  <!-- Lightning bolt -->
  <polygon points="300,60 280,120 300,115 275,170 320,100 295,108" fill="#facc15" opacity="0.9"/>
  <polygon points="100,280 90,310 105,305 88,340 115,300 100,306" fill="#a855f7" opacity="0.7"/>
  <!-- Sparkles -->
  <text x="70" y="90" font-size="22" opacity="0.7">⚡</text>
  <text x="310" y="290" font-size="18" opacity="0.5">✨</text>
  <text x="55" y="200" font-size="16" opacity="0.4">💜</text>
  <!-- Bottom label -->
  <rect x="115" y="330" width="170" height="40" rx="20" fill="url(#glow2)" opacity="0.9"/>
  <text x="200" y="356" text-anchor="middle" font-family="monospace" font-size="16" font-weight="bold" fill="#fff">SOLCAT</text>
</svg>
