<svg width="340" height="308" viewBox="0 0 340 308" fill="none" xmlns="http://www.w3.org/2000/svg">
<path d="M56.5564 132.314C62.5835 131.391 68.7461 135.753 70.0849 141.625C71.0539 145.875 70.7269 150.854 70.7121 155.235L70.6739 171.093C70.6701 174.317 70.1393 179.46 72.346 181.962C73.4552 183.198 75.0029 183.951 76.6593 184.062C78.3388 184.164 80.1494 183.719 81.3982 182.565C83.6515 180.483 83.5523 178.901 83.709 176.09C85.5156 175.991 87.6114 176.001 89.4518 175.952L89.4914 176.196C90.5564 182.911 85.73 188.947 79.1268 189.975C72.8885 190.987 66.6701 186.572 65.076 180.583C64.472 178.313 64.6361 174.202 64.6436 171.746C64.6909 165.763 64.685 159.78 64.6259 153.797C64.6103 150.481 64.7888 146.188 64.1848 142.991C63.3457 138.55 57.3002 136.748 53.9661 139.728C51.9494 141.53 51.7837 143.55 51.6221 146.139C49.5632 146.116 47.9454 146.193 45.8975 146.366C45.3174 138.733 48.9302 133.512 56.5564 132.314Z" fill="#2EAF52"/>
<path d="M289.102 145.872C289.344 145.849 289.587 145.833 289.832 145.823C293.141 145.702 295.177 146.96 297.451 149.083C297.377 148.244 297.359 147.259 297.322 146.407C298.552 146.43 299.813 146.423 301.046 146.428C300.929 152.693 301.321 159.244 300.909 165.449C300.46 172.215 293.988 174.533 288.141 173.588C286.672 173.351 281.918 172.394 282.342 170.295C282.429 169.864 283.083 168.505 283.466 168.25L283.691 168.372C286.867 170.198 292.198 171.648 295.399 168.778C297.389 166.995 297.135 164.45 297.138 161.966C294.07 165.863 287.775 166.052 283.937 163.183C277.968 158.723 279.452 148.817 286.525 146.407C287.418 146.103 288.176 145.998 289.102 145.872ZM292.144 161.545C293.951 161 295.565 160.074 296.483 158.357C298.015 155.493 296.897 151.643 293.969 150.166C292.327 149.338 290.895 149.428 289.123 149.551C287.958 149.839 287.127 150.069 286.202 150.866C283.123 153.514 283.6 158.611 287.111 160.675C288.633 161.551 290.416 161.859 292.144 161.545Z" fill="#FBFAFB"/>
<path d="M209.559 145.725C215.349 145.524 220.214 150.039 220.447 155.83C220.679 161.621 216.193 166.512 210.406 166.777C204.574 167.044 199.637 162.514 199.403 156.678C199.167 150.841 203.724 145.928 209.559 145.725ZM211.284 162.951C213.695 162.456 215.654 160.702 216.413 158.359C217.171 156.016 216.61 153.447 214.946 151.632C213.281 149.818 210.77 149.039 208.372 149.593C204.727 150.436 202.437 154.054 203.233 157.711C204.03 161.368 207.618 163.704 211.284 162.951Z" fill="#FBFAFB"/>
<path d="M108.65 139.806C109.767 139.752 112.383 139.49 113.133 140.344C114.847 142.295 116.389 144.635 117.93 146.731L127.767 159.926C127.613 157.776 127.717 155.284 127.691 153.108C127.64 148.676 127.779 144.268 127.858 139.843C129.122 139.776 130.535 139.795 131.814 139.787L131.856 165.833C131.318 166.167 128.223 166.088 127.569 165.917C126.706 165.175 122.197 158.973 121.193 157.597C118.404 153.77 115.3 149.782 112.6 145.904C112.917 152.042 112.593 159.647 112.673 165.978C111.455 166.065 109.865 166.057 108.617 166.087C108.552 164.915 108.553 163.618 108.566 162.443C108.649 154.923 108.379 147.316 108.65 139.806Z" fill="#FBFAFB"/>
<path d="M127.569 165.917C128.219 165.525 131.058 165.656 131.856 165.833C131.318 166.167 128.223 166.088 127.569 165.917Z" fill="#D6D4D8"/>
<path d="M146.832 145.885C149.72 145.83 152.327 146.743 154.293 148.893C156.827 151.664 157.122 154.16 156.958 157.745C155.582 157.915 153.84 157.796 152.412 157.84C148.591 157.957 144.354 157.683 140.58 157.88C141.78 163.803 148.443 164.08 152.902 161.722C153.244 161.439 153.626 161.159 153.98 160.889L155.499 163.266C151.615 167.517 144.37 167.715 139.93 163.987C135.698 160.433 135.584 153.327 139.072 149.198C141.111 146.784 143.733 146.073 146.832 145.885ZM140.325 154.652C142.529 154.825 145.428 154.706 147.691 154.707C149.28 154.704 151.814 154.774 153.329 154.642C152.261 150.438 150.312 149.013 145.886 149.398C141.952 149.987 141.748 151.439 140.325 154.652Z" fill="#FBFAFB"/>
<path d="M240.81 146.027C241.483 145.949 242.159 145.91 242.837 145.911C248.941 145.875 251.458 149.339 251.402 155.121C251.366 158.707 251.412 162.394 251.412 165.984C250.12 166.122 248.998 166.09 247.715 166.014C247.683 165.328 247.737 164.391 247.758 163.686C247.566 163.875 247.369 164.059 247.167 164.238C243.839 167.184 237.741 167.62 234.649 164.144C233.72 162.957 233.331 162.232 233.309 160.689C233.197 153.072 242.509 154.086 247.78 154.089C247.63 153.39 247.434 152.273 247.116 151.674C244.914 147.525 238.853 149.643 235.844 151.209C235.669 150.738 234.95 148.868 234.938 148.51C234.887 146.95 239.85 146.126 240.81 146.027ZM239.684 163.265C244.475 163.969 247.519 162.076 247.724 157.125C247.105 157.11 245.927 157.047 245.353 157.091C243.317 157.11 239.17 156.85 237.946 158.37C236.205 160.53 237.348 162.522 239.684 163.265Z" fill="#FBFAFB"/>
<path d="M76.3819 132.184C77.3592 132.081 78.9341 132.197 79.8974 132.479C83.8112 133.623 86.0402 135.216 88.1481 138.807C90.1263 142.176 90.2919 147.085 89.2915 150.754C88.304 154.376 85.5206 158.432 82.4687 160.528C81.3039 161.327 79.6689 162.207 78.3914 162.915C76.987 161.9 75.5959 160.866 74.2183 159.814C74.0093 159.563 73.9223 159.309 73.7956 159.009C73.9763 157.975 74.9502 158.099 75.7601 157.597C79.9049 155.028 83.2796 152.54 83.8141 147.347C84.3984 141.671 80.7275 136.7 74.7178 138.575C73.6685 138.905 72.9399 139.568 72.0967 140.269C71.8793 139.576 71.6716 139.044 71.3829 138.38C70.9925 137.482 69.033 135.137 70.0491 134.291C71.7095 132.91 74.2613 132.319 76.3819 132.184Z" fill="#41D059"/>
<path d="M56.4273 159.659C57.8689 159.579 60.5836 162.581 61.6637 163.598C56.3669 166.628 52.1064 169.226 51.4788 176.184C51.1502 179.826 53.8641 184.142 57.8119 184.175C59.8255 184.191 61.42 183.722 62.9515 182.337C63.7406 183.691 65.3348 185.773 65.715 187.383C65.7851 187.68 65.4117 187.987 65.1958 188.225C62.5046 190.435 57.734 190.476 54.6178 189.471C46.0452 186.707 44.1578 178.318 46.5013 170.552C48.0602 165.387 51.8925 161.984 56.4273 159.659Z" fill="#0D7342"/>
<path d="M48.6817 148.535C53.1324 148.015 58.2667 150.284 61.8548 152.766C62.5813 153.268 62.3097 159.059 62.1945 160.085C61.2935 159.296 60.3395 158.902 59.3138 158.188C54.5191 154.852 45.7597 151.59 42.819 158.88C42.476 159.73 42.4574 160.803 42.4421 161.755C42.7935 164.376 43.5466 164.532 44.8113 166.423C45.4454 167.372 43.7456 171.358 43.2809 172.644C39.3238 169.763 36.8806 167.832 36.481 162.581C35.8524 154.32 40.5702 149.21 48.6817 148.535Z" fill="#29A953"/>
<path d="M92.2302 149.831C94.9766 150.169 98.4389 155.684 98.8507 158.369C101.09 172.969 85.725 177.747 74.4847 170.268C73.9712 169.931 73.5289 169.595 73.0411 169.226C72.8373 167.31 72.9396 163.958 72.9437 161.897C73.2952 162.169 73.6674 162.47 74.0344 162.721C79.4626 166.435 83.0558 169.568 90.0066 167.037C91.4522 165.323 93.0986 163.968 93.2317 161.532C93.3831 158.764 91.8701 157.122 90.1956 155.21C90.7482 153.618 91.5235 151.298 92.2302 149.831Z" fill="#34BA56"/>
<path d="M176.431 146.58C177.54 146.436 178.979 146.437 180.119 146.405C180.07 152.983 180.066 159.56 180.107 166.138C177.037 166.17 176.108 166.913 176.351 163.42C173.994 165.54 172.287 166.763 168.932 166.612C158.868 166.157 161.172 153.523 161.291 146.508C162.559 146.508 163.826 146.486 165.092 146.443C164.973 149.734 164.949 153.016 164.948 156.307C164.91 158.135 165.123 159.973 166.414 161.395C168.237 163.402 172.149 163.225 174.123 161.502C175.894 159.957 175.517 158.65 176.132 157.056C176.173 155.245 175.977 147.739 176.431 146.58Z" fill="#FBFAFB"/>
<path d="M176.43 146.58C176.6 147.88 176.534 155.902 176.132 157.055C176.173 155.245 175.977 147.739 176.43 146.58Z" fill="#D6D4D8"/>
<path d="M266.241 146.019C270.508 145.302 274.82 147.659 275.582 151.913C276.324 156.054 275.997 161.757 275.987 166.007C274.733 166.068 273.464 166.051 272.207 166.048C271.895 162.201 272.499 157.994 271.995 154.167C271.409 149.725 267.999 149.208 264.3 149.838C263.7 150.175 263.051 150.593 262.566 151.085C261.849 151.826 261.339 152.744 261.089 153.745C260.556 155.8 260.797 163.363 260.825 166.001L256.999 166.093C256.847 163.713 256.912 160.672 256.91 158.269C256.885 154.368 256.909 150.468 256.978 146.567C258.251 146.532 259.522 146.481 260.791 146.413C260.726 147.264 260.788 148.593 260.76 149.539C262.136 147.345 263.64 146.353 266.241 146.019Z" fill="#FBFAFB"/>
<path d="M195.601 146.02C195.937 145.965 197.07 145.931 197.464 145.91L197.534 149.814C195.404 149.854 193.293 149.992 191.728 151.606C189.788 153.603 189.819 156.577 189.842 159.162C189.861 161.474 189.875 163.758 189.895 166.056C188.939 166.079 187.417 166.243 186.467 166.066C186.238 166.023 186.218 165.834 186.123 165.603C186.056 159.402 185.992 152.696 186.179 146.518C187.123 146.414 188.882 146.409 189.884 146.379L189.898 149.423C191.906 147.198 192.52 146.475 195.601 146.02Z" fill="#FBFAFB"/>
<path d="M225.426 139.246C226.616 139.186 227.687 139.211 228.876 139.236C228.709 141.163 228.826 144.721 228.833 146.75L228.842 159.797C228.845 160.974 228.936 165.137 228.706 166.003C227.79 166.142 226.067 166.137 225.086 166.162C224.948 160.396 225.101 154.567 225.055 148.793C225.043 147.434 224.874 139.929 225.426 139.246Z" fill="#FBFAFB"/>
<path d="M78.4662 147.35C79.3128 147.24 80.3703 147.257 81.2399 147.247C81.159 147.717 81.0591 148.184 80.941 148.645C80.0931 151.975 77.9694 153.445 75.2057 155.097L73.0486 155.912C72.9984 149.822 72.0009 149.39 78.4662 147.35Z" fill="#074E38"/>
<path d="M109.413 177.846C111.292 177.822 113.414 177.652 114.679 179.327C115.238 180.077 115.477 181.018 115.343 181.944C115.189 183.089 114.734 183.628 113.881 184.283C112.239 185.263 110.53 185.078 108.619 185.116C108.502 183.71 108.505 179.707 108.587 178.309C108.836 177.929 108.868 178.022 109.413 177.846ZM109.578 184.124C111.065 184.111 112.408 184.217 113.687 183.337C115.633 179.194 112.842 178.648 109.548 178.62C109.573 180.403 109.622 182.346 109.578 184.124Z" fill="#D6D4D8"/>
<path d="M61.5893 166.704L62.0643 166.749C62.5264 167.231 62.5916 171.966 62.2128 172.408C60.7142 174.159 56.9955 174.833 54.8304 175.239L54.2681 175.247L54.0424 175.017C53.9723 174.51 54.8749 173.062 55.1159 172.509C56.6244 169.044 58.4525 168.257 61.5893 166.704Z" fill="#074E38"/>
<path d="M176 177.383L176.333 177.521C176.728 178.045 176.766 184.465 176.432 184.943C175.068 184.994 173.414 185.279 172.233 184.769C170.854 183.922 170.657 181.951 171.463 180.637C172.426 179.063 174.401 180.097 175.517 179.882C175.728 179.375 175.796 178.175 176 177.383ZM174.523 184.219C176.57 183.182 176.139 180.149 172.975 180.465C171.083 182.26 172 184.741 174.523 184.219Z" fill="#D6D4D8"/>
<path d="M271.595 177.997L271.916 178.144C272.309 178.819 271.886 178.737 272.138 179.431C272.682 179.608 273.419 179.824 273.991 179.852C274.515 179.876 274.767 179.719 275.344 179.854C275.948 180.369 276.661 183.125 276.926 183.99C277.115 183.038 277.567 179.648 278.736 179.738C279.522 180.447 280.093 182.839 280.426 183.921C280.784 182.497 281.121 180.838 281.969 179.636L282.199 179.612C282.519 180.901 281.149 184.381 280.563 185.662C280.256 185.087 279.912 184.212 279.648 183.591C279.323 182.7 279.013 181.804 278.72 180.903C278.451 181.66 277.368 184.941 276.839 185.018C276.414 184.719 276.115 184.097 275.925 183.624C274.087 179.071 275.695 180.677 271.897 180.602C271.995 181.46 271.93 182.325 272.032 183.232C272.181 184.543 273.421 183.748 274.162 184.32L274.053 184.602C270.565 186.595 271.584 182.452 271.134 180.723C271.122 180.676 270.393 180.542 270.269 180.514L270.159 180.223C270.347 179.826 270.3 179.923 270.702 179.8C271.223 179.641 271.313 178.64 271.595 177.997Z" fill="#D6D4D8" fill-opacity="0.988235"/>
<path d="M284.861 179.736C286.282 179.585 287.554 179.704 288.365 181.098C288.699 181.673 288.787 182.358 288.61 183C288.332 183.981 287.739 184.456 286.917 184.929C286.266 185.051 285.454 185.118 284.833 184.876C284.114 184.598 283.539 184.041 283.238 183.333C282.947 182.664 282.939 181.906 283.211 181.23C283.591 180.306 284.011 180.099 284.861 179.736ZM286.548 184.089C287.512 183.72 288.02 182.662 287.706 181.678C287.392 180.694 286.366 180.126 285.367 180.383C284.666 180.562 284.124 181.115 283.956 181.818C283.788 182.521 284.024 183.26 284.567 183.736C285.111 184.212 285.874 184.348 286.548 184.089Z" fill="#D6D4D8"/>
<path d="M134.33 185.019C133.921 185.106 133.84 185.137 133.439 185.024C132.725 184.317 133.147 182.663 133.016 181.677C132.895 180.763 132.225 180.101 131.25 180.271C129.271 180.615 130.235 184.141 129.517 185.094L129.27 185.059C128.769 184.212 128.866 180.83 129.019 179.763C129.029 179.693 129.264 179.635 129.338 179.607C131.101 180.654 133.347 177.817 134.072 181.947C138.082 182.074 136.045 180.894 136.49 179.714C137.212 179.471 137.28 180.068 137.654 179.959C141.174 178.938 141.867 180.451 141.585 183.688C141.553 184.048 141.466 184.734 141.112 185.016C140.668 184.577 140.646 181.771 140.603 180.942C138.364 179.654 137.519 180.593 137.384 182.916L136.775 182.788C135.976 182.739 134.787 182.675 134.024 182.546C134.029 183.142 133.989 184.236 134.187 184.745L134.33 185.019Z" fill="#D6D4D8"/>
<path d="M193.89 177.579C195.609 178.388 196.373 181.446 197.436 183.433C198.03 182.021 199.289 178.543 200.432 177.853L200.687 177.957C201.12 178.755 201.316 184.401 200.926 185.084L200.596 185.155L200.37 184.925C200.076 184.041 200.207 181.675 200.23 180.631C200.263 180.279 200.278 180.422 200.121 180.067C199.627 180.3 198.064 184.17 197.339 185.211C196.438 183.727 195.305 181.033 194.598 179.385C194.535 181.038 194.522 182.856 194.402 184.507C194.374 184.893 194.302 184.886 194.047 185.062L193.829 184.891C193.701 183.766 193.635 178.545 193.89 177.579Z" fill="#D6D4D8"/>
<path d="M257.202 177.559C258.549 178.384 260.952 182.098 261.965 183.535C262.086 182.272 261.79 178.532 262.494 177.775L262.706 177.871C263.155 178.527 263.214 184.632 262.796 185.258C261.413 184.705 258.785 180.644 257.803 179.262C257.725 180.92 257.918 183.554 257.516 185.092L257.214 185.239L257.32 185.324L257.417 185.276C257.249 185.179 257.053 185.113 257.035 184.898C256.929 183.552 256.535 178.516 257.202 177.559Z" fill="#D6D4D8"/>
<path d="M266.114 179.721C266.185 179.713 266.257 179.708 266.328 179.704C267.995 179.605 269.717 179.96 269.808 182C269.097 183.543 266.291 182.192 265.373 182.979C265.568 183.978 266.644 184.104 267.465 184.167L268.559 183.769C269.036 183.856 268.923 183.76 269.153 184.09C268.929 184.702 268.369 184.967 267.747 185.052C264.304 185.522 262.884 181.443 266.114 179.721ZM267.503 181.873C267.967 181.892 268.403 181.97 268.752 181.677C268.886 180.765 267.437 180.348 266.696 180.323C266.129 180.605 265.908 180.689 265.473 181.172L265.392 181.477C265.946 182.132 266.678 181.914 267.503 181.873Z" fill="#D6D4D8"/>
<path d="M148.987 179.728C149.583 179.678 151.471 179.553 151.878 180.049C152.419 180.707 152.765 184.528 152.2 184.999C151.149 185.013 148.911 185.145 147.997 184.863C146.255 181.403 150.472 182.071 151.437 181.204L151.389 180.948C150.444 180.187 149.378 180.573 147.989 180.407L147.914 180.22C148.206 179.944 148.602 179.852 148.987 179.728ZM149.809 184.489C150.602 184.178 151.711 183.79 151.482 182.74C151.145 182.403 150.893 182.433 150.406 182.398C149.563 182.496 148.688 182.559 148.599 183.585C148.866 184.126 149.236 184.291 149.809 184.489Z" fill="#D6D4D8"/>
<path d="M230.331 179.74C231.852 179.561 232.215 179.685 233.437 180.512C233.842 181.227 234.19 181.566 233.892 182.373C232.777 183.29 230.811 182.373 229.689 182.841L229.602 183.106C230.123 184.195 230.683 184.172 231.805 184.235C232.364 184.01 232.791 183.782 233.345 183.979L233.439 184.193C232.845 185.219 231.26 185.049 230.277 184.989C228.082 183.43 227.664 181.059 230.331 179.74ZM232.265 181.984C232.85 181.874 232.775 181.985 233.082 181.614C232.822 180.727 231.773 180.254 230.891 180.43C230.375 180.656 230.095 180.744 229.709 181.168L229.63 181.486C230.241 182.145 231.399 181.99 232.265 181.984Z" fill="#D6D4D8"/>
<path d="M166.576 179.714C167.371 179.582 168.152 179.758 168.922 179.924C170.006 180.941 170.081 181.22 170.527 182.642C169.467 182.758 166.462 182.393 165.802 183.053L165.843 183.363C166.436 184.071 166.972 184.216 167.832 184.392C168.459 184.166 169.228 183.636 169.694 184.231C168.873 185.691 165.835 185.323 164.987 183.493C164.665 182.792 164.644 181.99 164.927 181.273C165.263 180.408 165.793 180.07 166.576 179.714ZM168.384 181.932C168.932 181.884 168.848 181.979 169.168 181.665C168.988 180.522 167.776 180.347 166.82 180.408C166.397 180.76 166.064 180.985 165.83 181.489L165.87 181.778C166.409 182.08 167.694 181.947 168.384 181.932Z" fill="#D6D4D8"/>
<path d="M117.078 183.014C118.002 184.628 119.426 183.964 120.991 183.968L121.062 184.151C120.577 185.071 119.491 185.212 118.574 185.03C114.883 184.296 115.381 178.933 120.053 179.905C120.973 180.107 121.612 181.259 121.78 182.111C121.181 183.425 118.157 182.055 117.078 183.014ZM117.085 181.758C117.731 182.077 120.174 182.152 120.604 181.325C120.272 180.575 119.595 180.486 118.863 180.272C117.851 180.65 117.609 180.757 117.085 181.758Z" fill="#D6D4D8"/>
<path d="M120.053 179.905C120.973 180.107 121.612 181.259 121.78 182.111C121.181 183.425 118.157 182.055 117.078 183.014C116.989 182.495 117.027 182.286 117.085 181.758C117.731 182.077 120.174 182.152 120.604 181.325C120.272 180.575 119.595 180.486 118.863 180.272C119.65 180.195 119.454 180.315 120.053 179.905Z" fill="#D6D4D8"/>
<path d="M248.832 179.762C250.293 179.561 251.95 179.6 252.546 181.204C253.602 184.048 248.839 181.858 248.354 183.148C248.899 184.293 249.714 184.165 250.827 184.154C251.306 183.917 251.771 183.551 252.144 184.05L251.973 184.391C250.851 185.207 250.572 185.052 249.116 185.002C248.596 184.731 248.186 184.405 247.718 184.056C247.088 182.058 247.083 181.055 248.832 179.762ZM250.422 181.932C251.073 181.904 251.137 182.004 251.62 181.666C251.712 180.649 250.44 180.359 249.634 180.32C249.092 180.603 248.455 180.867 248.291 181.505C248.768 182.245 249.599 181.949 250.422 181.932Z" fill="#D6D4D8"/>
<path d="M218.998 180.659C219.261 180.4 219.556 180.178 219.875 179.996C220.721 179.514 221.465 179.639 222.335 179.875C223.08 180.07 223.902 181.253 224.052 181.986C223.605 183.522 220.629 182.098 219.553 183.089C219.884 184.851 222.375 183.623 223.253 184.075C223.219 185.219 221.216 185.057 220.413 185.011L220.208 184.999C218.535 183.854 218.005 182.511 218.998 180.659ZM219.529 181.33L219.492 181.767C220.074 182.272 222.334 182.182 222.926 181.504L222.901 181.207C222.261 180.572 221.94 180.524 221.089 180.295C220.263 180.63 220.086 180.64 219.529 181.33Z" fill="#D6D4D8"/>
<path d="M218.997 180.659C219.261 180.4 219.556 180.178 219.875 179.996C220.721 179.514 221.464 179.639 222.335 179.875C221.783 180.324 221.874 180.198 221.089 180.295C220.263 180.63 220.086 180.64 219.529 181.33C219.352 181.173 219.145 180.859 218.997 180.659Z" fill="#D6D4D8"/>
<path d="M294.087 177.377C294.325 177.433 294.44 177.502 294.657 177.61C295.191 178.48 294.929 181.269 294.833 182.328C295.589 181.544 297.072 179.881 298.162 179.755L298.209 179.986C297.9 180.672 297.194 181.235 296.627 181.757C297.115 182.586 297.521 183.349 298.191 184.049C298.459 184.388 298.675 184.733 298.359 185.109C297.635 184.921 296.717 183.128 295.68 182.757C294.667 183.022 295.369 184.481 294.411 185.15L294.184 185.083C293.721 184.021 293.712 178.448 294.087 177.377Z" fill="#D6D4D8"/>
<path d="M208.71 179.614C208.741 179.623 208.771 179.631 208.802 179.639C210.09 180.284 212.144 179.077 213.239 180.302C213.949 181.098 214.031 184.496 213.267 185.087L213.059 184.899C212.741 183.811 212.779 182.633 212.725 181.479C212.32 180.575 211.853 180.079 210.696 180.388C208.928 180.862 209.86 183.902 209.305 184.937L209.037 184.968C208.634 184.486 208.618 180.412 208.71 179.614Z" fill="#D6D4D8"/>
<path d="M159.32 179.755C160.216 179.626 162.51 179.523 163.324 179.83C163.464 179.988 163.598 180.069 163.565 180.264C163.415 181.176 160.932 183.715 160.326 184.327C161.155 184.309 163.305 184.088 163.796 184.783L163.597 185.064C162.606 185.168 160.578 185.31 159.695 184.991C158.861 184.147 161.802 181.222 162.497 180.356C161.94 180.38 161.384 180.398 160.827 180.411C160.305 180.421 159.687 180.462 159.294 180.084L159.32 179.755Z" fill="#D6D4D8"/>
<path d="M181.471 177.682L181.892 177.834C182.278 178.466 182.161 183.114 182.135 184.15C183.048 184.124 185.851 183.825 186.272 184.614L185.992 184.949C184.406 185.077 182.756 185.093 181.16 185.13C181.051 183.617 181.018 179.008 181.471 177.682Z" fill="#D6D4D8"/>
<path d="M217.226 177.349C217.825 177.47 217.984 177.485 218.479 177.829L218.447 178.016C217.762 178.21 216.703 178.348 216.449 179.041C216.924 179.755 217.958 179.87 218.229 180.389C217.682 180.604 217.027 180.513 216.427 180.482C216.486 181.488 216.467 182.565 216.467 183.578C216.488 184.218 216.576 184.597 216.274 185.101C215.852 185.146 215.994 185.19 215.701 184.984C215.365 184.068 215.61 182.286 215.467 181.217C215.337 180.244 214.974 180.548 214.875 179.923C215.803 178.593 215.89 177.775 217.226 177.349Z" fill="#D6D4D8"/>
<path d="M243.314 179.727C244.316 179.613 245.842 179.606 246.385 180.646C245.868 180.951 242.145 179.667 242.246 181.925C242.339 184.009 243.261 184.165 244.908 184.121C245.401 183.836 245.721 183.556 246.266 183.767L246.295 184.058C245.247 185.872 242.936 184.998 241.685 183.849C241.257 181.788 241.199 180.68 243.314 179.727Z" fill="#D6D4D8"/>
<path d="M187.589 177.675L188.069 177.941C188.517 178.764 188.352 183.044 188.287 184.152C189.193 184.134 191.923 183.907 192.381 184.639L192.199 184.848C190.58 184.947 188.963 185.037 187.344 185.118C187.346 183.56 187.21 178.876 187.589 177.675Z" fill="#D6D4D8"/>
<path d="M124.504 179.724C125.523 179.656 127.075 179.596 127.535 180.704C127.145 181.004 122.946 179.318 123.377 182.376C123.597 183.927 124.518 184.423 125.994 184.222C126.57 183.892 126.773 183.744 127.354 183.862L127.458 184.137C126.669 185.741 123.567 185.295 122.744 183.548C122.425 182.858 122.4 182.068 122.674 181.358C123.046 180.384 123.626 180.103 124.504 179.724Z" fill="#D6D4D8"/>
<path d="M143.744 179.431L144.474 179.541C145.13 179.598 146.125 179.599 146.576 180.062L146.466 180.297C145.854 180.603 145.205 180.556 144.517 180.57C144.534 181.724 144.532 182.879 144.512 184.033C145.399 184.133 146.33 183.892 146.977 184.527L146.873 184.776C146.137 185.142 144.908 185.304 144.188 184.845C142.91 182.794 144.95 181.724 142.718 180.077L142.901 179.849C143.262 179.733 143.373 179.704 143.68 179.478L143.744 179.431Z" fill="#D6D4D8"/>
<path d="M225.154 179.576C225.481 179.631 225.89 179.891 226.264 179.93C226.843 179.989 227.681 179.557 228.103 179.839C227.017 181.111 226.097 180.676 226.02 182.473C226.045 183.019 226.185 184.639 225.89 185.057L225.56 185.109C225.039 184.446 225.163 180.593 225.154 179.576Z" fill="#D6D4D8"/>
<path d="M289.996 179.592C291.116 179.959 291.949 179.682 292.627 180.046C291.085 180.994 290.887 181.265 290.799 183.055C290.86 184.028 290.96 184.21 290.552 185.104L290.341 185.154C289.829 183.989 290.002 181.032 289.996 179.592Z" fill="#D6D4D8" fill-opacity="0.988235"/>
<path d="M154.358 177.405C154.473 177.431 154.595 177.461 154.685 177.542C155.305 178.101 154.996 183.923 155.085 185.181C154.869 185.187 154.448 185.154 154.394 184.937C154.055 183.565 153.983 178.635 154.358 177.405Z" fill="#D6D4D8" fill-opacity="0.988235"/>
<path d="M238.177 180.217C234.594 180.957 236.872 183.773 235.922 185.09L235.658 185.105C235.166 184.538 235.162 180.599 235.645 179.977C236.158 179.628 238.075 179.706 238.827 179.693L238.177 180.217Z" fill="#D6D4D8" fill-opacity="0.988235"/>
<path d="M206.147 177.678C206.3 177.785 206.514 177.907 206.55 178.095C206.795 179.348 206.929 184.403 206.587 185.225L206.179 184.992C205.705 184.076 205.858 178.749 206.147 177.678Z" fill="#D6D4D8"/>
<path d="M238.827 179.693C239.442 180.047 239.8 180.255 239.965 180.998C240.211 182.1 240.467 183.738 240.111 184.82L239.868 185.086L239.641 185.038C238.818 183.543 239.915 181.282 238.177 180.217L238.827 179.693Z" fill="#D6D4D8"/>
<path d="M157.076 179.447L157.581 179.557C157.875 179.957 157.925 184.605 157.721 185.238C156.916 185.169 156.848 184.797 156.877 184.039C156.926 182.765 156.762 180.646 157.076 179.447Z" fill="#D6D4D8" fill-opacity="0.988235"/>
<path d="M136.775 182.788L137.384 182.916C137.414 183.495 137.515 184.152 137.263 184.656C136.482 185.369 135.353 185.003 134.33 185.019L134.187 184.745C135.073 184.387 135.987 184.618 136.677 184.06C136.956 183.449 136.858 183.506 136.775 182.788Z" fill="#D6D4D8" fill-opacity="0.976471"/>
<path d="M143.744 179.431C143.736 178.957 143.687 178.672 143.935 178.276L144.167 178.169C144.613 178.616 144.514 178.918 144.474 179.541L143.744 179.431Z" fill="#D6D4D8" fill-opacity="0.956863"/>
</svg>
