<svg width="32" height="32" viewBox="0 0 32 32" fill="none" xmlns="http://www.w3.org/2000/svg">
<path d="M16 3.19995C17.919 3.1988 19.8136 3.62967 21.5433 4.46061C23.2731 5.29155 24.7935 6.50124 25.992 7.99995H6.008C7.20646 6.50124 8.72694 5.29155 10.4567 4.46061C12.1864 3.62967 14.081 3.1988 16 3.19995ZM27.2 17.6H28.7008C28.2901 20.8276 26.6658 23.7778 24.1581 25.8509C21.6503 27.9239 18.4473 28.9643 15.2 28.7606C11.9527 28.5568 8.90478 27.1242 6.67581 24.754C4.44684 22.3837 3.20403 19.2536 3.2 16H4.8V17.6H6.4V19.2H16V17.6H17.6V19.2H27.2V17.6ZM9.896 21.504C9.7312 21.6374 9.62615 21.8309 9.60395 22.0418C9.58175 22.2528 9.64421 22.4639 9.7776 22.6288C10.5276 23.5567 11.4756 24.3051 12.5523 24.8192C13.6289 25.3333 14.8069 25.6 16 25.6C18.512 25.6 20.7568 24.44 22.2224 22.6288C22.2885 22.547 22.3378 22.4531 22.3676 22.3523C22.3974 22.2515 22.407 22.1458 22.3959 22.0413C22.3849 21.9367 22.3533 21.8354 22.3031 21.7431C22.2529 21.6508 22.1849 21.5692 22.1032 21.5032C22.0215 21.4371 21.9275 21.3877 21.8267 21.358C21.7259 21.3282 21.6202 21.3186 21.5157 21.3296C21.4112 21.3407 21.3099 21.3723 21.2175 21.4225C21.1252 21.4727 21.0437 21.5406 20.9776 21.6224C20.3777 22.3648 19.6194 22.9636 18.7581 23.375C17.8968 23.7864 16.9545 23.9999 16 24C15.0455 23.9999 14.1032 23.7864 13.2419 23.375C12.3806 22.9636 11.6223 22.3648 11.0224 21.6224C10.9563 21.5405 10.8747 21.4725 10.7822 21.4223C10.6898 21.372 10.5884 21.3405 10.4838 21.3295C10.3791 21.3185 10.2734 21.3283 10.1725 21.3582C10.0716 21.3881 9.97769 21.4377 9.896 21.504ZM28.8 9.59995H4.8V11.2H3.2V12.8H1.6V14.4H0V17.6H1.6V14.4H3.2V12.8H6.4V16H8V17.6H14.4V16H16V12.8H17.6V16H19.2V17.6H25.6V16H27.2V12.8H28.8V9.59995ZM9.6 12.8V14.4H11.2V16H9.6V14.4H8V12.8H9.6ZM20.8 12.8V14.4H22.4V16H20.8V14.4H19.2V12.8H20.8Z" fill="url(#paint0_linear_1934_3858)"/>
<defs>
<linearGradient id="paint0_linear_1934_3858" x1="-6.28147e-08" y1="5.59995" x2="31.2" y2="31.2" gradientUnits="userSpaceOnUse">
<stop stop-color="#70E000"/>
<stop offset="1" stop-color="#63B511"/>
</linearGradient>
</defs>
</svg>
