<svg width="31" height="31" viewBox="0 0 31 31" fill="none" xmlns="http://www.w3.org/2000/svg">
<path d="M19.6354 2.10645C18.0793 2.10645 16.8199 3.74242 16.8199 5.76105C16.8199 6.97502 17.2861 8.1133 18.0672 8.79143C18.4063 13.7078 17.7826 18.0127 14.8219 18.485C11.177 18.8604 10.3899 14.3557 9.69962 10.069C10.2385 9.11838 10.2567 7.79846 9.73595 6.59963C8.92462 4.73539 7.0961 3.73395 5.6454 4.36424C4.19712 4.99393 3.67944 7.01135 4.48835 8.87619C5.05991 10.1901 6.16974 11.1225 7.33829 11.2738C9.39083 14.7613 11.6856 20.5012 10.4262 22.1844C9.72989 23.1047 8.4463 22.8141 7.05978 21.9422C7.2838 20.9553 6.78732 19.8473 5.7998 19.1147C4.42296 18.0914 2.54237 18.1156 1.59845 19.1631C0.653917 20.2106 1.00691 21.8877 2.38556 22.911C3.46208 23.7041 4.88796 23.8858 5.92392 23.359C10.0326 25.351 13.3022 29.3834 16.5535 28.8445C21.1672 28.0817 21.1854 21.6213 25.5326 19.7686C26.3621 20.3195 27.5609 20.2711 28.5418 19.6414C29.8254 18.8119 30.3037 17.268 29.6135 16.1963C28.9233 15.1186 27.3188 14.9188 26.0291 15.7483C25.0664 16.3719 24.5215 17.4315 24.6668 18.4063C22.8565 19.7625 20.5193 20.81 19.2963 20.0592C18.3154 19.4598 19.4053 12.6543 20.4467 9.25764C21.6334 8.79143 22.4508 7.37463 22.4508 5.76105C22.4508 3.74242 21.1914 2.10584 19.6354 2.10645Z" fill="#70E000"/>
</svg>
